G04 #@! TF.GenerationSoftware,KiCad,Pcbnew,7.0.10*
G04 #@! TF.CreationDate,2024-01-23T19:41:07-06:00*
G04 #@! TF.ProjectId,radiohead,72616469-6f68-4656-9164-2e6b69636164,2.0*
G04 #@! TF.SameCoordinates,Original*
G04 #@! TF.FileFunction,Other,User*
%FSLAX46Y46*%
G04 Gerber Fmt 4.6, Leading zero omitted, Abs format (unit mm)*
G04 Created by KiCad (PCBNEW 7.0.10) date 2024-01-23 19:41:07*
%MOMM*%
%LPD*%
G01*
G04 APERTURE LIST*
%ADD10C,0.050000*%
%ADD11C,0.152400*%
G04 APERTURE END LIST*
D10*
X91313200Y-110531600D02*
X91313200Y-107571600D01*
X92773200Y-110531600D02*
X91313200Y-110531600D01*
X91313200Y-107571600D02*
X92773200Y-107571600D01*
X92773200Y-107571600D02*
X92773200Y-110531600D01*
X99868000Y-124423400D02*
X99868000Y-127383400D01*
X98408000Y-124423400D02*
X99868000Y-124423400D01*
X99868000Y-127383400D02*
X98408000Y-127383400D01*
X98408000Y-127383400D02*
X98408000Y-124423400D01*
X96710400Y-128917400D02*
X93750400Y-128917400D01*
X96710400Y-127457400D02*
X96710400Y-128917400D01*
X93750400Y-128917400D02*
X93750400Y-127457400D01*
X93750400Y-127457400D02*
X96710400Y-127457400D01*
X99903200Y-119539600D02*
X99903200Y-116579600D01*
X101363200Y-119539600D02*
X99903200Y-119539600D01*
X99903200Y-116579600D02*
X101363200Y-116579600D01*
X101363200Y-116579600D02*
X101363200Y-119539600D01*
X94396532Y-110531600D02*
X94396532Y-107571600D01*
X95856532Y-110531600D02*
X94396532Y-110531600D01*
X94396532Y-107571600D02*
X95856532Y-107571600D01*
X95856532Y-107571600D02*
X95856532Y-110531600D01*
X99883700Y-119635400D02*
X99883700Y-122595400D01*
X98423700Y-119635400D02*
X99883700Y-119635400D01*
X99883700Y-122595400D02*
X98423700Y-122595400D01*
X98423700Y-122595400D02*
X98423700Y-119635400D01*
X109277600Y-130066400D02*
X112237600Y-130066400D01*
X109277600Y-131526400D02*
X109277600Y-130066400D01*
X112237600Y-130066400D02*
X112237600Y-131526400D01*
X112237600Y-131526400D02*
X109277600Y-131526400D01*
X95938200Y-110531600D02*
X95938200Y-107571600D01*
X97398200Y-110531600D02*
X95938200Y-110531600D01*
X95938200Y-107571600D02*
X97398200Y-107571600D01*
X97398200Y-107571600D02*
X97398200Y-110531600D01*
X118073900Y-133062800D02*
X115113900Y-133062800D01*
X118073900Y-131602800D02*
X118073900Y-133062800D01*
X115113900Y-133062800D02*
X115113900Y-131602800D01*
X115113900Y-131602800D02*
X118073900Y-131602800D01*
X121493200Y-107051600D02*
X118533200Y-107051600D01*
X121493200Y-105591600D02*
X121493200Y-107051600D01*
X118533200Y-107051600D02*
X118533200Y-105591600D01*
X118533200Y-105591600D02*
X121493200Y-105591600D01*
X120213200Y-108773600D02*
X123173200Y-108773600D01*
X120213200Y-110233600D02*
X120213200Y-108773600D01*
X123173200Y-108773600D02*
X123173200Y-110233600D01*
X123173200Y-110233600D02*
X120213200Y-110233600D01*
X121493200Y-105485600D02*
X118533200Y-105485600D01*
X121493200Y-104025600D02*
X121493200Y-105485600D01*
X118533200Y-105485600D02*
X118533200Y-104025600D01*
X118533200Y-104025600D02*
X121493200Y-104025600D01*
X120213200Y-107177600D02*
X123173200Y-107177600D01*
X120213200Y-108637600D02*
X120213200Y-107177600D01*
X123173200Y-107177600D02*
X123173200Y-108637600D01*
X123173200Y-108637600D02*
X120213200Y-108637600D01*
X123173200Y-111829600D02*
X120213200Y-111829600D01*
X123173200Y-110369600D02*
X123173200Y-111829600D01*
X120213200Y-111829600D02*
X120213200Y-110369600D01*
X120213200Y-110369600D02*
X123173200Y-110369600D01*
X106450000Y-103500000D02*
G75*
G03*
X100550000Y-103500000I-2950000J0D01*
G01*
X100550000Y-103500000D02*
G75*
G03*
X106450000Y-103500000I2950000J0D01*
G01*
X164450000Y-103500000D02*
G75*
G03*
X158550000Y-103500000I-2950000J0D01*
G01*
X158550000Y-103500000D02*
G75*
G03*
X164450000Y-103500000I2950000J0D01*
G01*
X86692800Y-116598974D02*
X83732800Y-116598974D01*
X86692800Y-115138974D02*
X86692800Y-116598974D01*
X83732800Y-116598974D02*
X83732800Y-115138974D01*
X83732800Y-115138974D02*
X86692800Y-115138974D01*
X86692800Y-124560844D02*
X83732800Y-124560844D01*
X86692800Y-123100844D02*
X86692800Y-124560844D01*
X83732800Y-124560844D02*
X83732800Y-123100844D01*
X83732800Y-123100844D02*
X86692800Y-123100844D01*
X83732800Y-118323722D02*
X86692800Y-118323722D01*
X83732800Y-119783722D02*
X83732800Y-118323722D01*
X86692800Y-118323722D02*
X86692800Y-119783722D01*
X86692800Y-119783722D02*
X83732800Y-119783722D01*
X86692800Y-118191348D02*
X83732800Y-118191348D01*
X86692800Y-116731348D02*
X86692800Y-118191348D01*
X83732800Y-118191348D02*
X83732800Y-116731348D01*
X83732800Y-116731348D02*
X86692800Y-116731348D01*
X86692800Y-126153218D02*
X83732800Y-126153218D01*
X86692800Y-124693218D02*
X86692800Y-126153218D01*
X83732800Y-126153218D02*
X83732800Y-124693218D01*
X83732800Y-124693218D02*
X86692800Y-124693218D01*
X84830000Y-127857600D02*
X84830000Y-135857600D01*
X79630000Y-127857600D02*
X84830000Y-127857600D01*
X79630000Y-128177600D02*
X79630000Y-127857600D01*
X70110000Y-128177600D02*
X79630000Y-128177600D01*
X79630000Y-135537600D02*
X70110000Y-135537600D01*
X79630000Y-135537600D02*
X79630000Y-135857600D01*
X70110000Y-135537600D02*
X70110000Y-128177600D01*
X79630000Y-135857600D02*
X84830000Y-135857600D01*
X103862600Y-125043800D02*
X103862600Y-122083800D01*
X105322600Y-125043800D02*
X103862600Y-125043800D01*
X103862600Y-122083800D02*
X105322600Y-122083800D01*
X105322600Y-122083800D02*
X105322600Y-125043800D01*
X116668000Y-122464800D02*
X116668000Y-119504800D01*
X118128000Y-122464800D02*
X116668000Y-122464800D01*
X116668000Y-119504800D02*
X118128000Y-119504800D01*
X118128000Y-119504800D02*
X118128000Y-122464800D01*
X113480400Y-127514200D02*
X110520400Y-127514200D01*
X113480400Y-126054200D02*
X113480400Y-127514200D01*
X110520400Y-127514200D02*
X110520400Y-126054200D01*
X110520400Y-126054200D02*
X113480400Y-126054200D01*
X106889800Y-122084000D02*
X106889800Y-125044000D01*
X105429800Y-122084000D02*
X106889800Y-122084000D01*
X106889800Y-125044000D02*
X105429800Y-125044000D01*
X105429800Y-125044000D02*
X105429800Y-122084000D01*
X96880400Y-122629800D02*
X96880400Y-119669800D01*
X98340400Y-122629800D02*
X96880400Y-122629800D01*
X96880400Y-119669800D02*
X98340400Y-119669800D01*
X98340400Y-119669800D02*
X98340400Y-122629800D01*
X87781500Y-121257200D02*
X87781500Y-118297200D01*
X89241500Y-121257200D02*
X87781500Y-121257200D01*
X87781500Y-118297200D02*
X89241500Y-118297200D01*
X89241500Y-118297200D02*
X89241500Y-121257200D01*
X98334800Y-110542200D02*
X98334800Y-107582200D01*
X99794800Y-110542200D02*
X98334800Y-110542200D01*
X98334800Y-107582200D02*
X99794800Y-107582200D01*
X99794800Y-107582200D02*
X99794800Y-110542200D01*
X108720080Y-110539600D02*
X108720080Y-107579600D01*
X110180080Y-110539600D02*
X108720080Y-110539600D01*
X108720080Y-107579600D02*
X110180080Y-107579600D01*
X110180080Y-107579600D02*
X110180080Y-110539600D01*
X105693200Y-131651600D02*
X102733200Y-131651600D01*
X105693200Y-130191600D02*
X105693200Y-131651600D01*
X102733200Y-131651600D02*
X102733200Y-130191600D01*
X102733200Y-130191600D02*
X105693200Y-130191600D01*
X117549200Y-131427800D02*
X117549200Y-128467800D01*
X119009200Y-131427800D02*
X117549200Y-131427800D01*
X117549200Y-128467800D02*
X119009200Y-128467800D01*
X119009200Y-128467800D02*
X119009200Y-131427800D01*
X113534200Y-126058200D02*
X116494200Y-126058200D01*
X113534200Y-127518200D02*
X113534200Y-126058200D01*
X116494200Y-126058200D02*
X116494200Y-127518200D01*
X116494200Y-127518200D02*
X113534200Y-127518200D01*
X110336200Y-127445600D02*
X107376200Y-127445600D01*
X110336200Y-125985600D02*
X110336200Y-127445600D01*
X107376200Y-127445600D02*
X107376200Y-125985600D01*
X107376200Y-125985600D02*
X110336200Y-125985600D01*
X99796040Y-119600500D02*
X96836040Y-119600500D01*
X99796040Y-118140500D02*
X99796040Y-119600500D01*
X96836040Y-119600500D02*
X96836040Y-118140500D01*
X96836040Y-118140500D02*
X99796040Y-118140500D01*
X118469400Y-141537400D02*
X121429400Y-141537400D01*
X118469400Y-142997400D02*
X118469400Y-141537400D01*
X121429400Y-141537400D02*
X121429400Y-142997400D01*
X121429400Y-142997400D02*
X118469400Y-142997400D01*
X123263000Y-148608800D02*
X123263000Y-145648800D01*
X124723000Y-148608800D02*
X123263000Y-148608800D01*
X123263000Y-145648800D02*
X124723000Y-145648800D01*
X124723000Y-145648800D02*
X124723000Y-148608800D01*
X106450000Y-152500000D02*
G75*
G03*
X100550000Y-152500000I-2950000J0D01*
G01*
X100550000Y-152500000D02*
G75*
G03*
X106450000Y-152500000I2950000J0D01*
G01*
X96851800Y-127467400D02*
X99811800Y-127467400D01*
X96851800Y-128927400D02*
X96851800Y-127467400D01*
X99811800Y-127467400D02*
X99811800Y-128927400D01*
X99811800Y-128927400D02*
X96851800Y-128927400D01*
X109043500Y-135859500D02*
X109043500Y-132159500D01*
X109043500Y-135859500D02*
X102743500Y-135859500D01*
X109043500Y-132159500D02*
X102743500Y-132159500D01*
X102743500Y-135859500D02*
X102743500Y-132159500D01*
X92854866Y-110531600D02*
X92854866Y-107571600D01*
X94314866Y-110531600D02*
X92854866Y-110531600D01*
X92854866Y-107571600D02*
X94314866Y-107571600D01*
X94314866Y-107571600D02*
X94314866Y-110531600D01*
X118060800Y-136175200D02*
X115100800Y-136175200D01*
X118060800Y-134715200D02*
X118060800Y-136175200D01*
X115100800Y-136175200D02*
X115100800Y-134715200D01*
X115100800Y-134715200D02*
X118060800Y-134715200D01*
X87839460Y-124319060D02*
X87839460Y-121359060D01*
X89299460Y-124319060D02*
X87839460Y-124319060D01*
X87839460Y-121359060D02*
X89299460Y-121359060D01*
X89299460Y-121359060D02*
X89299460Y-124319060D01*
X99836300Y-124204500D02*
X96876300Y-124204500D01*
X99836300Y-122744500D02*
X99836300Y-124204500D01*
X96876300Y-124204500D02*
X96876300Y-122744500D01*
X96876300Y-122744500D02*
X99836300Y-122744500D01*
X86692800Y-122968470D02*
X83732800Y-122968470D01*
X86692800Y-121508470D02*
X86692800Y-122968470D01*
X83732800Y-122968470D02*
X83732800Y-121508470D01*
X83732800Y-121508470D02*
X86692800Y-121508470D01*
X164450000Y-152500000D02*
G75*
G03*
X158550000Y-152500000I-2950000J0D01*
G01*
X158550000Y-152500000D02*
G75*
G03*
X164450000Y-152500000I2950000J0D01*
G01*
X153060000Y-147078000D02*
X153060000Y-149378000D01*
X153060000Y-147078000D02*
X157760000Y-147078000D01*
X157760000Y-147078000D02*
X157760000Y-149378000D01*
X157760000Y-149378000D02*
X153060000Y-149378000D01*
X114063600Y-143154600D02*
X114063600Y-148554600D01*
X114063600Y-148554600D02*
X121463600Y-148554600D01*
X121463600Y-143154600D02*
X114063600Y-143154600D01*
X121463600Y-148554600D02*
X121463600Y-143154600D01*
X114977200Y-135877200D02*
X114977200Y-131637200D01*
X114977200Y-131637200D02*
X110737200Y-131637200D01*
X110737200Y-135877200D02*
X114977200Y-135877200D01*
X110737200Y-131637200D02*
X110737200Y-135877200D01*
X121589000Y-148542200D02*
X121589000Y-145582200D01*
X123049000Y-148542200D02*
X121589000Y-148542200D01*
X121589000Y-145582200D02*
X123049000Y-145582200D01*
X123049000Y-145582200D02*
X123049000Y-148542200D01*
X115158200Y-131463800D02*
X115158200Y-128503800D01*
X116618200Y-131463800D02*
X115158200Y-131463800D01*
X115158200Y-128503800D02*
X116618200Y-128503800D01*
X116618200Y-128503800D02*
X116618200Y-131463800D01*
X105380400Y-112253200D02*
X105380400Y-109293200D01*
X106840400Y-112253200D02*
X105380400Y-112253200D01*
X105380400Y-109293200D02*
X106840400Y-109293200D01*
X106840400Y-109293200D02*
X106840400Y-112253200D01*
X89217800Y-115206400D02*
X89217800Y-118166400D01*
X87757800Y-115206400D02*
X89217800Y-115206400D01*
X89217800Y-118166400D02*
X87757800Y-118166400D01*
X87757800Y-118166400D02*
X87757800Y-115206400D01*
X119017600Y-134619200D02*
X116057600Y-134619200D01*
X119017600Y-133159200D02*
X119017600Y-134619200D01*
X116057600Y-134619200D02*
X116057600Y-133159200D01*
X116057600Y-133159200D02*
X119017600Y-133159200D01*
X90779200Y-137983000D02*
X90779200Y-135023000D01*
X92239200Y-137983000D02*
X90779200Y-137983000D01*
X90779200Y-135023000D02*
X92239200Y-135023000D01*
X92239200Y-135023000D02*
X92239200Y-137983000D01*
X100114000Y-136432200D02*
X100114000Y-139392200D01*
X98654000Y-136432200D02*
X100114000Y-136432200D01*
X100114000Y-139392200D02*
X98654000Y-139392200D01*
X98654000Y-139392200D02*
X98654000Y-136432200D01*
X100120200Y-133326800D02*
X100120200Y-136286800D01*
X98660200Y-133326800D02*
X100120200Y-133326800D01*
X100120200Y-136286800D02*
X98660200Y-136286800D01*
X98660200Y-136286800D02*
X98660200Y-133326800D01*
X106918200Y-118076600D02*
X117318200Y-118076600D01*
X117318200Y-118076600D02*
X117318200Y-110676600D01*
X106918200Y-110676600D02*
X106918200Y-118076600D01*
X117318200Y-110676600D02*
X106918200Y-110676600D01*
X83732800Y-119916096D02*
X86692800Y-119916096D01*
X83732800Y-121376096D02*
X83732800Y-119916096D01*
X86692800Y-119916096D02*
X86692800Y-121376096D01*
X86692800Y-121376096D02*
X83732800Y-121376096D01*
X86692800Y-127745598D02*
X83732800Y-127745598D01*
X86692800Y-126285598D02*
X86692800Y-127745598D01*
X83732800Y-127745598D02*
X83732800Y-126285598D01*
X83732800Y-126285598D02*
X86692800Y-126285598D01*
X115369400Y-139189000D02*
X115369400Y-136229000D01*
X116829400Y-139189000D02*
X115369400Y-139189000D01*
X115369400Y-136229000D02*
X116829400Y-136229000D01*
X116829400Y-136229000D02*
X116829400Y-139189000D01*
X105304800Y-138931000D02*
X105304800Y-135971000D01*
X106764800Y-138931000D02*
X105304800Y-138931000D01*
X105304800Y-135971000D02*
X106764800Y-135971000D01*
X106764800Y-135971000D02*
X106764800Y-138931000D01*
X116687400Y-122755200D02*
X119647400Y-122755200D01*
X116687400Y-124215200D02*
X116687400Y-122755200D01*
X119647400Y-122755200D02*
X119647400Y-124215200D01*
X119647400Y-124215200D02*
X116687400Y-124215200D01*
X150860000Y-126508000D02*
X150860000Y-129108000D01*
X150860000Y-129108000D02*
X152410000Y-129108000D01*
X152410000Y-123558000D02*
X152410000Y-126508000D01*
X152410000Y-123558000D02*
X153560000Y-122408000D01*
X152410000Y-126508000D02*
X150860000Y-126508000D01*
X152410000Y-129108000D02*
X152410000Y-132058000D01*
X152410000Y-132058000D02*
X153560000Y-133208000D01*
X153560000Y-122408000D02*
X163210000Y-122408000D01*
X153560000Y-133208000D02*
X163210000Y-133208000D01*
X163210000Y-122408000D02*
X163210000Y-126508000D01*
X163210000Y-126508000D02*
X164760000Y-126508000D01*
X163210000Y-129108000D02*
X163210000Y-133208000D01*
X164760000Y-126508000D02*
X164760000Y-129108000D01*
X164760000Y-129108000D02*
X163210000Y-129108000D01*
X102623200Y-130296600D02*
X102623200Y-133256600D01*
X101163200Y-130296600D02*
X102623200Y-130296600D01*
X102623200Y-133256600D02*
X101163200Y-133256600D01*
X101163200Y-133256600D02*
X101163200Y-130296600D01*
X118136000Y-134705400D02*
X121096000Y-134705400D01*
X118136000Y-136165400D02*
X118136000Y-134705400D01*
X121096000Y-134705400D02*
X121096000Y-136165400D01*
X121096000Y-136165400D02*
X118136000Y-136165400D01*
X157820000Y-133836000D02*
X157820000Y-147586000D01*
X157820000Y-147586000D02*
X163970000Y-147586000D01*
X163970000Y-133836000D02*
X157820000Y-133836000D01*
X163970000Y-147586000D02*
X163970000Y-133836000D01*
X148104600Y-134228800D02*
X148104600Y-137188800D01*
X146644600Y-134228800D02*
X148104600Y-134228800D01*
X148104600Y-137188800D02*
X146644600Y-137188800D01*
X146644600Y-137188800D02*
X146644600Y-134228800D01*
X148320000Y-137168000D02*
X148320000Y-134208000D01*
X149780000Y-137168000D02*
X148320000Y-137168000D01*
X148320000Y-134208000D02*
X149780000Y-134208000D01*
X149780000Y-134208000D02*
X149780000Y-137168000D01*
X105317000Y-119005000D02*
X105317000Y-121965000D01*
X103857000Y-119005000D02*
X105317000Y-119005000D01*
X105317000Y-121965000D02*
X103857000Y-121965000D01*
X103857000Y-121965000D02*
X103857000Y-119005000D01*
X105417200Y-121967600D02*
X105417200Y-119007600D01*
X106877200Y-121967600D02*
X105417200Y-121967600D01*
X105417200Y-119007600D02*
X106877200Y-119007600D01*
X106877200Y-119007600D02*
X106877200Y-121967600D01*
X118239800Y-142029400D02*
G75*
G03*
X116239800Y-142029400I-1000000J0D01*
G01*
X116239800Y-142029400D02*
G75*
G03*
X118239800Y-142029400I1000000J0D01*
G01*
X156030000Y-146798000D02*
X156030000Y-139598000D01*
X156030000Y-139598000D02*
X147230000Y-139598000D01*
X147230000Y-146798000D02*
X156030000Y-146798000D01*
X147230000Y-139598000D02*
X147230000Y-146798000D01*
X116696400Y-124374800D02*
X119656400Y-124374800D01*
X116696400Y-125834800D02*
X116696400Y-124374800D01*
X119656400Y-124374800D02*
X119656400Y-125834800D01*
X119656400Y-125834800D02*
X116696400Y-125834800D01*
X91956800Y-127403200D02*
X91956800Y-124443200D01*
X93416800Y-127403200D02*
X91956800Y-127403200D01*
X91956800Y-124443200D02*
X93416800Y-124443200D01*
X93416800Y-124443200D02*
X93416800Y-127403200D01*
X124425200Y-116306600D02*
X118329200Y-116306600D01*
X124425200Y-111966600D02*
X124425200Y-116306600D01*
X118329200Y-116306600D02*
X118329200Y-111966600D01*
X118329200Y-111966600D02*
X124425200Y-111966600D01*
X83075200Y-110666600D02*
X89171200Y-110666600D01*
X83075200Y-115006600D02*
X83075200Y-110666600D01*
X89171200Y-110666600D02*
X89171200Y-115006600D01*
X89171200Y-115006600D02*
X83075200Y-115006600D01*
X144730600Y-141610800D02*
X141770600Y-141610800D01*
X144730600Y-140150800D02*
X144730600Y-141610800D01*
X141770600Y-141610800D02*
X141770600Y-140150800D01*
X141770600Y-140150800D02*
X144730600Y-140150800D01*
X141698400Y-141629200D02*
X138738400Y-141629200D01*
X141698400Y-140169200D02*
X141698400Y-141629200D01*
X138738400Y-141629200D02*
X138738400Y-140169200D01*
X138738400Y-140169200D02*
X141698400Y-140169200D01*
X121621800Y-145447200D02*
X121621800Y-142487200D01*
X123081800Y-145447200D02*
X121621800Y-145447200D01*
X121621800Y-142487200D02*
X123081800Y-142487200D01*
X123081800Y-142487200D02*
X123081800Y-145447200D01*
X150449200Y-126723600D02*
X150449200Y-129683600D01*
X148989200Y-126723600D02*
X150449200Y-126723600D01*
X150449200Y-129683600D02*
X148989200Y-129683600D01*
X148989200Y-129683600D02*
X148989200Y-126723600D01*
X108406800Y-107579600D02*
X108406800Y-110539600D01*
X106946800Y-107579600D02*
X108406800Y-107579600D01*
X108406800Y-110539600D02*
X106946800Y-110539600D01*
X106946800Y-110539600D02*
X106946800Y-107579600D01*
X151410000Y-134208000D02*
X151410000Y-137168000D01*
X149950000Y-134208000D02*
X151410000Y-134208000D01*
X151410000Y-137168000D02*
X149950000Y-137168000D01*
X149950000Y-137168000D02*
X149950000Y-134208000D01*
X146187800Y-143385400D02*
X146187800Y-146345400D01*
X144727800Y-143385400D02*
X146187800Y-143385400D01*
X146187800Y-146345400D02*
X144727800Y-146345400D01*
X144727800Y-146345400D02*
X144727800Y-143385400D01*
X144608000Y-148888000D02*
X144608000Y-141688000D01*
X144608000Y-141688000D02*
X135808000Y-141688000D01*
X135808000Y-148888000D02*
X144608000Y-148888000D01*
X135808000Y-141688000D02*
X135808000Y-148888000D01*
X116693600Y-126069600D02*
X119653600Y-126069600D01*
X116693600Y-127529600D02*
X116693600Y-126069600D01*
X119653600Y-126069600D02*
X119653600Y-127529600D01*
X119653600Y-127529600D02*
X116693600Y-127529600D01*
X115041000Y-128509800D02*
X115041000Y-131469800D01*
X113581000Y-128509800D02*
X115041000Y-128509800D01*
X115041000Y-131469800D02*
X113581000Y-131469800D01*
X113581000Y-131469800D02*
X113581000Y-128509800D01*
X134220200Y-144736000D02*
X134220200Y-141776000D01*
X135680200Y-144736000D02*
X134220200Y-144736000D01*
X134220200Y-141776000D02*
X135680200Y-141776000D01*
X135680200Y-141776000D02*
X135680200Y-144736000D01*
X132790000Y-145398000D02*
X132790000Y-143298000D01*
X132790000Y-143298000D02*
X131890000Y-143298000D01*
X131890000Y-146748000D02*
X131890000Y-145398000D01*
X131890000Y-146748000D02*
X130740000Y-147898000D01*
X131890000Y-145398000D02*
X132790000Y-145398000D01*
X131890000Y-143298000D02*
X131890000Y-141948000D01*
X131890000Y-141948000D02*
X130740000Y-140798000D01*
X130740000Y-147898000D02*
X124790000Y-147898000D01*
X130740000Y-140798000D02*
X124790000Y-140798000D01*
X124790000Y-147898000D02*
X124790000Y-145398000D01*
X124790000Y-145398000D02*
X123890000Y-145398000D01*
X124790000Y-143298000D02*
X124790000Y-140798000D01*
X123890000Y-145398000D02*
X123890000Y-143298000D01*
X123890000Y-143298000D02*
X124790000Y-143298000D01*
X96764800Y-123588200D02*
X96764800Y-118188200D01*
X96764800Y-118188200D02*
X89364800Y-118188200D01*
X89364800Y-123588200D02*
X96764800Y-123588200D01*
X89364800Y-118188200D02*
X89364800Y-123588200D01*
X96846600Y-127394200D02*
X96846600Y-124434200D01*
X98306600Y-127394200D02*
X96846600Y-127394200D01*
X96846600Y-124434200D02*
X98306600Y-124434200D01*
X98306600Y-124434200D02*
X98306600Y-127394200D01*
X119871400Y-125786200D02*
X119871400Y-122826200D01*
X121331400Y-125786200D02*
X119871400Y-125786200D01*
X119871400Y-122826200D02*
X121331400Y-122826200D01*
X121331400Y-122826200D02*
X121331400Y-125786200D01*
X105393200Y-118669600D02*
X105393200Y-115709600D01*
X106853200Y-118669600D02*
X105393200Y-118669600D01*
X105393200Y-115709600D02*
X106853200Y-115709600D01*
X106853200Y-115709600D02*
X106853200Y-118669600D01*
X103843200Y-118659600D02*
X103843200Y-115699600D01*
X105303200Y-118659600D02*
X103843200Y-118659600D01*
X103843200Y-115699600D02*
X105303200Y-115699600D01*
X105303200Y-115699600D02*
X105303200Y-118659600D01*
X114039920Y-110539600D02*
X114039920Y-107579600D01*
X115499920Y-110539600D02*
X114039920Y-110539600D01*
X114039920Y-107579600D02*
X115499920Y-107579600D01*
X115499920Y-107579600D02*
X115499920Y-110539600D01*
X110493360Y-110539600D02*
X110493360Y-107579600D01*
X111953360Y-110539600D02*
X110493360Y-110539600D01*
X110493360Y-107579600D02*
X111953360Y-107579600D01*
X111953360Y-107579600D02*
X111953360Y-110539600D01*
X115813200Y-110539600D02*
X115813200Y-107579600D01*
X117273200Y-110539600D02*
X115813200Y-110539600D01*
X115813200Y-107579600D02*
X117273200Y-107579600D01*
X117273200Y-107579600D02*
X117273200Y-110539600D01*
X112266640Y-110539600D02*
X112266640Y-107579600D01*
X113726640Y-110539600D02*
X112266640Y-110539600D01*
X112266640Y-107579600D02*
X113726640Y-107579600D01*
X113726640Y-107579600D02*
X113726640Y-110539600D01*
X119848200Y-122438600D02*
X119848200Y-119478600D01*
X121308200Y-122438600D02*
X119848200Y-122438600D01*
X119848200Y-119478600D02*
X121308200Y-119478600D01*
X121308200Y-119478600D02*
X121308200Y-122438600D01*
X117982000Y-119374200D02*
X117982000Y-116414200D01*
X119442000Y-119374200D02*
X117982000Y-119374200D01*
X117982000Y-116414200D02*
X119442000Y-116414200D01*
X119442000Y-116414200D02*
X119442000Y-119374200D01*
X119483200Y-108749600D02*
X119483200Y-111709600D01*
X118023200Y-108749600D02*
X119483200Y-108749600D01*
X119483200Y-111709600D02*
X118023200Y-111709600D01*
X118023200Y-111709600D02*
X118023200Y-108749600D01*
X105383200Y-115339600D02*
X105383200Y-112379600D01*
X106843200Y-115339600D02*
X105383200Y-115339600D01*
X105383200Y-112379600D02*
X106843200Y-112379600D01*
X106843200Y-112379600D02*
X106843200Y-115339600D01*
X103823200Y-115319600D02*
X103823200Y-112359600D01*
X105283200Y-115319600D02*
X103823200Y-115319600D01*
X103823200Y-112359600D02*
X105283200Y-112359600D01*
X105283200Y-112359600D02*
X105283200Y-115319600D01*
X102293200Y-115309600D02*
X102293200Y-112349600D01*
X103753200Y-115309600D02*
X102293200Y-115309600D01*
X102293200Y-112349600D02*
X103753200Y-112349600D01*
X103753200Y-112349600D02*
X103753200Y-115309600D01*
X102293200Y-118649600D02*
X102293200Y-115689600D01*
X103753200Y-118649600D02*
X102293200Y-118649600D01*
X102293200Y-115689600D02*
X103753200Y-115689600D01*
X103753200Y-115689600D02*
X103753200Y-118649600D01*
X116896400Y-136239200D02*
X116896400Y-139639200D01*
X116896400Y-139639200D02*
X120996400Y-139639200D01*
X120996400Y-136239200D02*
X116896400Y-136239200D01*
X120996400Y-139639200D02*
X120996400Y-136239200D01*
X156240000Y-139388000D02*
X156240000Y-137088000D01*
X156240000Y-139388000D02*
X151540000Y-139388000D01*
X151540000Y-139388000D02*
X151540000Y-137088000D01*
X151540000Y-137088000D02*
X156240000Y-137088000D01*
X123175000Y-104115000D02*
X123175000Y-107075000D01*
X121715000Y-104115000D02*
X123175000Y-104115000D01*
X123175000Y-107075000D02*
X121715000Y-107075000D01*
X121715000Y-107075000D02*
X121715000Y-104115000D01*
X107408600Y-125747000D02*
X116568600Y-125747000D01*
X116568600Y-125747000D02*
X116568600Y-118347000D01*
X107408600Y-118347000D02*
X107408600Y-125747000D01*
X116568600Y-118347000D02*
X107408600Y-118347000D01*
X138718332Y-120935000D02*
X134158332Y-120935000D01*
X138718332Y-118695000D02*
X138718332Y-120935000D01*
X134158332Y-120935000D02*
X134158332Y-118695000D01*
X134158332Y-118695000D02*
X138718332Y-118695000D01*
X105295000Y-139125000D02*
X108255000Y-139125000D01*
X105295000Y-140585000D02*
X105295000Y-139125000D01*
X108255000Y-139125000D02*
X108255000Y-140585000D01*
X108255000Y-140585000D02*
X105295000Y-140585000D01*
X131185000Y-103635000D02*
X127685000Y-103635000D01*
X131185000Y-101935000D02*
X131185000Y-103635000D01*
X127685000Y-103635000D02*
X127685000Y-101935000D01*
X127685000Y-101935000D02*
X131185000Y-101935000D01*
X145795000Y-139415000D02*
X145795000Y-133915000D01*
X145795000Y-133915000D02*
X134895000Y-133915000D01*
X134895000Y-139415000D02*
X145795000Y-139415000D01*
X134895000Y-133915000D02*
X134895000Y-139415000D01*
X141235000Y-121535000D02*
X141235000Y-124495000D01*
X139775000Y-121535000D02*
X141235000Y-121535000D01*
X141235000Y-124495000D02*
X139775000Y-124495000D01*
X139775000Y-124495000D02*
X139775000Y-121535000D01*
X131017220Y-103765000D02*
X131017220Y-106725000D01*
X129557220Y-103765000D02*
X131017220Y-103765000D01*
X131017220Y-106725000D02*
X129557220Y-106725000D01*
X129557220Y-106725000D02*
X129557220Y-103765000D01*
X148155000Y-105745000D02*
X148155000Y-116945000D01*
X148155000Y-116945000D02*
X151755000Y-116945000D01*
X151755000Y-105745000D02*
X148155000Y-105745000D01*
X151755000Y-116945000D02*
X151755000Y-105745000D01*
X155485000Y-107445000D02*
X155485000Y-104485000D01*
X156945000Y-107445000D02*
X155485000Y-107445000D01*
X155485000Y-104485000D02*
X156945000Y-104485000D01*
X156945000Y-104485000D02*
X156945000Y-107445000D01*
X101425000Y-147925000D02*
X104385000Y-147925000D01*
X101425000Y-149385000D02*
X101425000Y-147925000D01*
X104385000Y-147925000D02*
X104385000Y-149385000D01*
X104385000Y-149385000D02*
X101425000Y-149385000D01*
X142335000Y-103225000D02*
X142335000Y-106725000D01*
X140635000Y-103225000D02*
X142335000Y-103225000D01*
X142335000Y-106725000D02*
X140635000Y-106725000D01*
X140635000Y-106725000D02*
X140635000Y-103225000D01*
X106063600Y-130105400D02*
X109023600Y-130105400D01*
X106063600Y-131565400D02*
X106063600Y-130105400D01*
X109023600Y-130105400D02*
X109023600Y-131565400D01*
X109023600Y-131565400D02*
X106063600Y-131565400D01*
X125015000Y-125545000D02*
X125015000Y-130745000D01*
X125015000Y-130745000D02*
X130215000Y-130745000D01*
X130215000Y-125545000D02*
X125015000Y-125545000D01*
X130215000Y-130745000D02*
X130215000Y-125545000D01*
X104485000Y-147915000D02*
X107445000Y-147915000D01*
X104485000Y-149375000D02*
X104485000Y-147915000D01*
X107445000Y-147915000D02*
X107445000Y-149375000D01*
X107445000Y-149375000D02*
X104485000Y-149375000D01*
X127555000Y-103225000D02*
X127555000Y-106725000D01*
X125855000Y-103225000D02*
X127555000Y-103225000D01*
X127555000Y-106725000D02*
X125855000Y-106725000D01*
X125855000Y-106725000D02*
X125855000Y-103225000D01*
X160075000Y-107675000D02*
X155335000Y-107675000D01*
X160075000Y-107675000D02*
X160075000Y-113135000D01*
X155335000Y-113135000D02*
X155335000Y-107675000D01*
X155335000Y-113135000D02*
X160075000Y-113135000D01*
X121309800Y-116414800D02*
X121309800Y-119374800D01*
X119849800Y-116414800D02*
X121309800Y-116414800D01*
X121309800Y-119374800D02*
X119849800Y-119374800D01*
X119849800Y-119374800D02*
X119849800Y-116414800D01*
X101735000Y-138853200D02*
X101735000Y-135953200D01*
X105135000Y-138853200D02*
X101735000Y-138853200D01*
X101735000Y-135953200D02*
X105135000Y-135953200D01*
X105135000Y-135953200D02*
X105135000Y-138853200D01*
X110245000Y-139055000D02*
X110245000Y-142015000D01*
X108785000Y-139055000D02*
X110245000Y-139055000D01*
X110245000Y-142015000D02*
X108785000Y-142015000D01*
X108785000Y-142015000D02*
X108785000Y-139055000D01*
X81035000Y-127605000D02*
X81035000Y-124645000D01*
X82495000Y-127605000D02*
X81035000Y-127605000D01*
X81035000Y-124645000D02*
X82495000Y-124645000D01*
X82495000Y-124645000D02*
X82495000Y-127605000D01*
X155325000Y-116185000D02*
X155325000Y-113225000D01*
X156785000Y-116185000D02*
X155325000Y-116185000D01*
X155325000Y-113225000D02*
X156785000Y-113225000D01*
X156785000Y-113225000D02*
X156785000Y-116185000D01*
X143575000Y-120935000D02*
X139015000Y-120935000D01*
X143575000Y-118695000D02*
X143575000Y-120935000D01*
X139015000Y-120935000D02*
X139015000Y-118695000D01*
X139015000Y-118695000D02*
X143575000Y-118695000D01*
X147715000Y-103225000D02*
X147715000Y-106725000D01*
X146015000Y-103225000D02*
X147715000Y-103225000D01*
X147715000Y-106725000D02*
X146015000Y-106725000D01*
X146015000Y-106725000D02*
X146015000Y-103225000D01*
X160105000Y-113225000D02*
X160105000Y-116185000D01*
X158645000Y-113225000D02*
X160105000Y-113225000D01*
X160105000Y-116185000D02*
X158645000Y-116185000D01*
X158645000Y-116185000D02*
X158645000Y-113225000D01*
X129286110Y-103765000D02*
X129286110Y-106725000D01*
X127826110Y-103765000D02*
X129286110Y-103765000D01*
X129286110Y-106725000D02*
X127826110Y-106725000D01*
X127826110Y-106725000D02*
X127826110Y-103765000D01*
X88695000Y-128115000D02*
X85095000Y-128115000D01*
X85095000Y-128115000D02*
X85095000Y-134265000D01*
X88695000Y-134265000D02*
X88695000Y-128115000D01*
X85095000Y-134265000D02*
X88695000Y-134265000D01*
X144048333Y-103765000D02*
X144048333Y-106725000D01*
X142588333Y-103765000D02*
X144048333Y-103765000D01*
X144048333Y-106725000D02*
X142588333Y-106725000D01*
X142588333Y-106725000D02*
X142588333Y-103765000D01*
X132975000Y-118485000D02*
X132975000Y-107985000D01*
X132975000Y-118485000D02*
X125995000Y-118485000D01*
X125995000Y-107985000D02*
X132975000Y-107985000D01*
X125995000Y-107985000D02*
X125995000Y-118485000D01*
X160260000Y-121440000D02*
X160260000Y-113440000D01*
X165460000Y-121440000D02*
X160260000Y-121440000D01*
X165460000Y-121120000D02*
X165460000Y-121440000D01*
X174980000Y-121120000D02*
X165460000Y-121120000D01*
X165460000Y-113760000D02*
X174980000Y-113760000D01*
X165460000Y-113760000D02*
X165460000Y-113440000D01*
X174980000Y-113760000D02*
X174980000Y-121120000D01*
X165460000Y-113440000D02*
X160260000Y-113440000D01*
X132035000Y-131975000D02*
X142435000Y-131975000D01*
X142435000Y-131975000D02*
X142435000Y-124575000D01*
X132035000Y-124575000D02*
X132035000Y-131975000D01*
X142435000Y-124575000D02*
X132035000Y-124575000D01*
X138655000Y-141625000D02*
X135695000Y-141625000D01*
X138655000Y-140165000D02*
X138655000Y-141625000D01*
X135695000Y-141625000D02*
X135695000Y-140165000D01*
X135695000Y-140165000D02*
X138655000Y-140165000D01*
X131915000Y-123935000D02*
X131915000Y-126895000D01*
X130455000Y-123935000D02*
X131915000Y-123935000D01*
X131915000Y-126895000D02*
X130455000Y-126895000D01*
X130455000Y-126895000D02*
X130455000Y-123935000D01*
X140423333Y-103225000D02*
X140423333Y-106725000D01*
X138723333Y-103225000D02*
X140423333Y-103225000D01*
X140423333Y-106725000D02*
X138723333Y-106725000D01*
X138723333Y-106725000D02*
X138723333Y-103225000D01*
X143995000Y-127075000D02*
X143995000Y-130035000D01*
X142535000Y-127075000D02*
X143995000Y-127075000D01*
X143995000Y-130035000D02*
X142535000Y-130035000D01*
X142535000Y-130035000D02*
X142535000Y-127075000D01*
X153765000Y-113785000D02*
X153765000Y-110825000D01*
X155225000Y-113785000D02*
X153765000Y-113785000D01*
X153765000Y-110825000D02*
X155225000Y-110825000D01*
X155225000Y-110825000D02*
X155225000Y-113785000D01*
X134953333Y-103225000D02*
X134953333Y-106725000D01*
X133253333Y-103225000D02*
X134953333Y-103225000D01*
X134953333Y-106725000D02*
X133253333Y-106725000D01*
X133253333Y-106725000D02*
X133253333Y-103225000D01*
X156875000Y-116725000D02*
X156875000Y-113225000D01*
X158575000Y-116725000D02*
X156875000Y-116725000D01*
X156875000Y-113225000D02*
X158575000Y-113225000D01*
X158575000Y-113225000D02*
X158575000Y-116725000D01*
X145761666Y-103765000D02*
X145761666Y-106725000D01*
X144301666Y-103765000D02*
X145761666Y-103765000D01*
X145761666Y-106725000D02*
X144301666Y-106725000D01*
X144301666Y-106725000D02*
X144301666Y-103765000D01*
X152385000Y-107445000D02*
X152385000Y-104485000D01*
X153845000Y-107445000D02*
X152385000Y-107445000D01*
X152385000Y-104485000D02*
X153845000Y-104485000D01*
X153845000Y-104485000D02*
X153845000Y-107445000D01*
X92324600Y-133232800D02*
X92324600Y-139382800D01*
X92324600Y-139382800D02*
X98474600Y-139382800D01*
X98474600Y-133232800D02*
X92324600Y-133232800D01*
X98474600Y-139382800D02*
X98474600Y-133232800D01*
X138439999Y-103765000D02*
X138439999Y-106725000D01*
X136979999Y-103765000D02*
X138439999Y-103765000D01*
X138439999Y-106725000D02*
X136979999Y-106725000D01*
X136979999Y-106725000D02*
X136979999Y-103765000D01*
X152155000Y-113785000D02*
X152155000Y-110825000D01*
X153615000Y-113785000D02*
X152155000Y-113785000D01*
X152155000Y-110825000D02*
X153615000Y-110825000D01*
X153615000Y-110825000D02*
X153615000Y-113785000D01*
X109130400Y-135850400D02*
X109130400Y-132890400D01*
X110590400Y-135850400D02*
X109130400Y-135850400D01*
X109130400Y-132890400D02*
X110590400Y-132890400D01*
X110590400Y-132890400D02*
X110590400Y-135850400D01*
X96725000Y-127355000D02*
X96725000Y-124555000D01*
X96725000Y-127355000D02*
X93525000Y-127355000D01*
X96725000Y-124555000D02*
X93525000Y-124555000D01*
X93525000Y-124555000D02*
X93525000Y-127355000D01*
X86450000Y-103500000D02*
G75*
G03*
X80550000Y-103500000I-2950000J0D01*
G01*
X80550000Y-103500000D02*
G75*
G03*
X86450000Y-103500000I2950000J0D01*
G01*
X139695000Y-121525000D02*
X139695000Y-124485000D01*
X138235000Y-121525000D02*
X139695000Y-121525000D01*
X139695000Y-124485000D02*
X138235000Y-124485000D01*
X138235000Y-124485000D02*
X138235000Y-121525000D01*
X163895000Y-107145000D02*
X160295000Y-107145000D01*
X160295000Y-107145000D02*
X160295000Y-113295000D01*
X163895000Y-113295000D02*
X163895000Y-107145000D01*
X160295000Y-113295000D02*
X163895000Y-113295000D01*
X147665000Y-118485000D02*
X147665000Y-107985000D01*
X147665000Y-118485000D02*
X140685000Y-118485000D01*
X140685000Y-107985000D02*
X147665000Y-107985000D01*
X140685000Y-107985000D02*
X140685000Y-118485000D01*
X106915000Y-138854200D02*
X106915000Y-135954200D01*
X110315000Y-138854200D02*
X106915000Y-138854200D01*
X106915000Y-135954200D02*
X110315000Y-135954200D01*
X110315000Y-135954200D02*
X110315000Y-138854200D01*
X133861666Y-120935000D02*
X129301666Y-120935000D01*
X133861666Y-118695000D02*
X133861666Y-120935000D01*
X129301666Y-120935000D02*
X129301666Y-118695000D01*
X129301666Y-118695000D02*
X133861666Y-118695000D01*
X129005000Y-120935000D02*
X124445000Y-120935000D01*
X129005000Y-118695000D02*
X129005000Y-120935000D01*
X124445000Y-120935000D02*
X124445000Y-118695000D01*
X124445000Y-118695000D02*
X129005000Y-118695000D01*
X136696666Y-103765000D02*
X136696666Y-106725000D01*
X135236666Y-103765000D02*
X136696666Y-103765000D01*
X136696666Y-106725000D02*
X135236666Y-106725000D01*
X135236666Y-106725000D02*
X135236666Y-103765000D01*
X101405600Y-107617200D02*
X101405600Y-110577200D01*
X99945600Y-107617200D02*
X101405600Y-107617200D01*
X101405600Y-110577200D02*
X99945600Y-110577200D01*
X99945600Y-110577200D02*
X99945600Y-107617200D01*
X140343333Y-118485000D02*
X140343333Y-107985000D01*
X140343333Y-118485000D02*
X133363333Y-118485000D01*
X133363333Y-107985000D02*
X140343333Y-107985000D01*
X133363333Y-107985000D02*
X133363333Y-118485000D01*
X146705000Y-120155000D02*
X144605000Y-120155000D01*
X144605000Y-120155000D02*
X144605000Y-120955000D01*
X147405000Y-120955000D02*
X146705000Y-120955000D01*
X147405000Y-120955000D02*
X148555000Y-122105000D01*
X146705000Y-120955000D02*
X146705000Y-120155000D01*
X144605000Y-120955000D02*
X143905000Y-120955000D01*
X143905000Y-120955000D02*
X142755000Y-122105000D01*
X148555000Y-122105000D02*
X148555000Y-126755000D01*
X142755000Y-122105000D02*
X142755000Y-126755000D01*
X148555000Y-126755000D02*
X146705000Y-126755000D01*
X146705000Y-126755000D02*
X146705000Y-127555000D01*
X144605000Y-126755000D02*
X142755000Y-126755000D01*
X146705000Y-127555000D02*
X144605000Y-127555000D01*
X144605000Y-127555000D02*
X144605000Y-126755000D01*
X86450000Y-152500000D02*
G75*
G03*
X80550000Y-152500000I-2950000J0D01*
G01*
X80550000Y-152500000D02*
G75*
G03*
X86450000Y-152500000I2950000J0D01*
G01*
D11*
X80017399Y-149606000D02*
X82531999Y-149606000D01*
X82531999Y-149606000D02*
X82531999Y-149313900D01*
X91823700Y-149606000D02*
X95125700Y-149606000D01*
X95125700Y-149606000D02*
X95125700Y-149004800D01*
X82531999Y-149313900D02*
X85725701Y-149313900D01*
X85725701Y-149313900D02*
X85725701Y-149004800D01*
X85725701Y-149004800D02*
X91823700Y-149004800D01*
X91823700Y-149004800D02*
X91823700Y-149606000D01*
X95125700Y-149004800D02*
X98429300Y-149004800D01*
X98429300Y-149004800D02*
X98429300Y-139505200D01*
X78922100Y-147010900D02*
X80017399Y-147010900D01*
X80017399Y-147010900D02*
X80017399Y-149606000D01*
X78922100Y-141499100D02*
X78922100Y-147010900D01*
X80420700Y-141499100D02*
X78922100Y-141499100D01*
X80420700Y-139505200D02*
X80420700Y-141499100D01*
X84615800Y-139505200D02*
X80420700Y-139505200D01*
X87333600Y-139505200D02*
X87333600Y-138904000D01*
X98429300Y-139505200D02*
X87333600Y-139505200D01*
X84615800Y-138904000D02*
X84615800Y-139505200D01*
X87333600Y-138904000D02*
X84615800Y-138904000D01*
D10*
X114575000Y-103885000D02*
X125775000Y-103885000D01*
X125775000Y-103885000D02*
X125775000Y-100285000D01*
X114575000Y-100285000D02*
X114575000Y-103885000D01*
X125775000Y-100285000D02*
X114575000Y-100285000D01*
X104825000Y-140585000D02*
X101865000Y-140585000D01*
X104825000Y-139125000D02*
X104825000Y-140585000D01*
X101865000Y-140585000D02*
X101865000Y-139125000D01*
X101865000Y-139125000D02*
X104825000Y-139125000D01*
X99789600Y-110676600D02*
X89389600Y-110676600D01*
X89389600Y-110676600D02*
X89389600Y-118076600D01*
X99789600Y-118076600D02*
X99789600Y-110676600D01*
X89389600Y-118076600D02*
X99789600Y-118076600D01*
X145935000Y-103635000D02*
X142435000Y-103635000D01*
X145935000Y-101935000D02*
X145935000Y-103635000D01*
X142435000Y-103635000D02*
X142435000Y-101935000D01*
X142435000Y-101935000D02*
X145935000Y-101935000D01*
X152165000Y-110665000D02*
X152165000Y-107705000D01*
X153625000Y-110665000D02*
X152165000Y-110665000D01*
X152165000Y-107705000D02*
X153625000Y-107705000D01*
X153625000Y-107705000D02*
X153625000Y-110665000D01*
X132988332Y-103225000D02*
X132988332Y-106725000D01*
X131288332Y-103225000D02*
X132988332Y-103225000D01*
X132988332Y-106725000D02*
X131288332Y-106725000D01*
X131288332Y-106725000D02*
X131288332Y-103225000D01*
X138583333Y-103635000D02*
X135083333Y-103635000D01*
X138583333Y-101935000D02*
X138583333Y-103635000D01*
X135083333Y-103635000D02*
X135083333Y-101935000D01*
X135083333Y-101935000D02*
X138583333Y-101935000D01*
X153805000Y-110665000D02*
X153805000Y-107705000D01*
X155265000Y-110665000D02*
X153805000Y-110665000D01*
X153805000Y-107705000D02*
X155265000Y-107705000D01*
X155265000Y-107705000D02*
X155265000Y-110665000D01*
X155445000Y-104485000D02*
X155445000Y-107445000D01*
X153985000Y-104485000D02*
X155445000Y-104485000D01*
X155445000Y-107445000D02*
X153985000Y-107445000D01*
X153985000Y-107445000D02*
X153985000Y-104485000D01*
M02*
