G04 #@! TF.GenerationSoftware,KiCad,Pcbnew,7.0.10*
G04 #@! TF.CreationDate,2024-01-23T19:41:07-06:00*
G04 #@! TF.ProjectId,radiohead,72616469-6f68-4656-9164-2e6b69636164,2.0*
G04 #@! TF.SameCoordinates,Original*
G04 #@! TF.FileFunction,Copper,L3,Inr*
G04 #@! TF.FilePolarity,Positive*
%FSLAX46Y46*%
G04 Gerber Fmt 4.6, Leading zero omitted, Abs format (unit mm)*
G04 Created by KiCad (PCBNEW 7.0.10) date 2024-01-23 19:41:07*
%MOMM*%
%LPD*%
G01*
G04 APERTURE LIST*
G04 Aperture macros list*
%AMRoundRect*
0 Rectangle with rounded corners*
0 $1 Rounding radius*
0 $2 $3 $4 $5 $6 $7 $8 $9 X,Y pos of 4 corners*
0 Add a 4 corners polygon primitive as box body*
4,1,4,$2,$3,$4,$5,$6,$7,$8,$9,$2,$3,0*
0 Add four circle primitives for the rounded corners*
1,1,$1+$1,$2,$3*
1,1,$1+$1,$4,$5*
1,1,$1+$1,$6,$7*
1,1,$1+$1,$8,$9*
0 Add four rect primitives between the rounded corners*
20,1,$1+$1,$2,$3,$4,$5,0*
20,1,$1+$1,$4,$5,$6,$7,0*
20,1,$1+$1,$6,$7,$8,$9,0*
20,1,$1+$1,$8,$9,$2,$3,0*%
G04 Aperture macros list end*
G04 #@! TA.AperFunction,ComponentPad*
%ADD10R,1.700000X1.700000*%
G04 #@! TD*
G04 #@! TA.AperFunction,ComponentPad*
%ADD11O,1.700000X1.700000*%
G04 #@! TD*
G04 #@! TA.AperFunction,ComponentPad*
%ADD12C,1.000000*%
G04 #@! TD*
G04 #@! TA.AperFunction,ComponentPad*
%ADD13RoundRect,0.250000X0.350000X0.625000X-0.350000X0.625000X-0.350000X-0.625000X0.350000X-0.625000X0*%
G04 #@! TD*
G04 #@! TA.AperFunction,ComponentPad*
%ADD14O,1.200000X1.750000*%
G04 #@! TD*
G04 #@! TA.AperFunction,ComponentPad*
%ADD15R,1.500000X1.050000*%
G04 #@! TD*
G04 #@! TA.AperFunction,ComponentPad*
%ADD16O,1.500000X1.050000*%
G04 #@! TD*
G04 #@! TA.AperFunction,ComponentPad*
%ADD17C,1.400000*%
G04 #@! TD*
G04 #@! TA.AperFunction,ViaPad*
%ADD18C,0.800000*%
G04 #@! TD*
G04 #@! TA.AperFunction,Conductor*
%ADD19C,0.500000*%
G04 #@! TD*
G04 #@! TA.AperFunction,Conductor*
%ADD20C,0.200000*%
G04 #@! TD*
G04 #@! TA.AperFunction,Conductor*
%ADD21C,0.250000*%
G04 #@! TD*
G04 APERTURE END LIST*
D10*
X159620000Y-135636000D03*
D11*
X162160000Y-135636000D03*
X159620000Y-138176000D03*
X162160000Y-138176000D03*
X159620000Y-140716000D03*
X162160000Y-140716000D03*
X159620000Y-143256000D03*
X162160000Y-143256000D03*
X159620000Y-145796000D03*
X162160000Y-145796000D03*
D12*
X117239800Y-142029400D03*
D13*
X143345000Y-137215000D03*
D14*
X141345000Y-137215000D03*
X139345000Y-137215000D03*
X137345000Y-137215000D03*
D10*
X149955000Y-107545000D03*
D11*
X149955000Y-110085000D03*
X149955000Y-112625000D03*
X149955000Y-115165000D03*
D15*
X157345000Y-109135000D03*
D16*
X157345000Y-110405000D03*
X157345000Y-111675000D03*
D10*
X86895000Y-129915000D03*
D11*
X86895000Y-132455000D03*
D17*
X132025000Y-117035000D03*
X132025000Y-113835000D03*
X132025000Y-111635000D03*
X132025000Y-109435000D03*
X126945000Y-109435000D03*
X126945000Y-111635000D03*
X126945000Y-113835000D03*
X126945000Y-117035000D03*
D10*
X94124600Y-135032800D03*
D11*
X96664600Y-135032800D03*
X94124600Y-137572800D03*
X96664600Y-137572800D03*
D10*
X162095000Y-108945000D03*
D11*
X162095000Y-111485000D03*
D17*
X146715000Y-117035000D03*
X146715000Y-113835000D03*
X146715000Y-111635000D03*
X146715000Y-109435000D03*
X141635000Y-109435000D03*
X141635000Y-111635000D03*
X141635000Y-113835000D03*
X141635000Y-117035000D03*
X139393333Y-117035000D03*
X139393333Y-113835000D03*
X139393333Y-111635000D03*
X139393333Y-109435000D03*
X134313333Y-109435000D03*
X134313333Y-111635000D03*
X134313333Y-113835000D03*
X134313333Y-117035000D03*
D10*
X116375000Y-102085000D03*
D11*
X118915000Y-102085000D03*
X121455000Y-102085000D03*
X123995000Y-102085000D03*
D10*
X156600000Y-151200000D03*
D11*
X156600000Y-153740000D03*
X154060000Y-151200000D03*
X154060000Y-153740000D03*
X151520000Y-151200000D03*
X151520000Y-153740000D03*
X148980000Y-151200000D03*
X148980000Y-153740000D03*
X146440000Y-151200000D03*
X146440000Y-153740000D03*
X143900000Y-151200000D03*
X143900000Y-153740000D03*
X141360000Y-151200000D03*
X141360000Y-153740000D03*
X138820000Y-151200000D03*
X138820000Y-153740000D03*
X136280000Y-151200000D03*
X136280000Y-153740000D03*
X133740000Y-151200000D03*
X133740000Y-153740000D03*
X131200000Y-151200000D03*
X131200000Y-153740000D03*
X128660000Y-151200000D03*
X128660000Y-153740000D03*
X126120000Y-151200000D03*
X126120000Y-153740000D03*
X123580000Y-151200000D03*
X123580000Y-153740000D03*
X121040000Y-151200000D03*
X121040000Y-153740000D03*
X118500000Y-151200000D03*
X118500000Y-153740000D03*
X115960000Y-151200000D03*
X115960000Y-153740000D03*
X113420000Y-151200000D03*
X113420000Y-153740000D03*
X110880000Y-151200000D03*
X110880000Y-153740000D03*
X108340000Y-151200000D03*
X108340000Y-153740000D03*
D18*
X116563193Y-116851607D03*
X89140000Y-132110000D03*
X122470000Y-109500000D03*
X149719200Y-127428588D03*
X82940000Y-116830000D03*
X162860000Y-114670000D03*
X126630000Y-148470000D03*
X97570000Y-125190000D03*
X92630000Y-125570000D03*
X87420000Y-147890000D03*
X114800000Y-108280000D03*
X112039400Y-119557800D03*
X95118200Y-108264088D03*
X118295200Y-129162000D03*
X112970000Y-108290000D03*
X144620000Y-112090000D03*
X139620000Y-134310000D03*
X83180000Y-108310000D03*
X88620000Y-122090000D03*
X82690000Y-137410000D03*
X83180000Y-110280000D03*
X128720000Y-137970000D03*
X107590000Y-105470000D03*
X140860000Y-101870000D03*
X149550000Y-104540000D03*
X90420000Y-101830000D03*
X116070000Y-138520000D03*
X99400000Y-134100000D03*
X153140000Y-105150000D03*
X101903200Y-131041600D03*
X122340000Y-150240000D03*
X150660000Y-117840000D03*
X117322600Y-132354600D03*
X87110000Y-120100000D03*
X129510000Y-112090000D03*
X137050000Y-111970000D03*
X87100000Y-143960000D03*
X136990000Y-109230000D03*
X133650000Y-134480000D03*
X109551000Y-138182200D03*
X156160000Y-117740000D03*
X123230000Y-115410000D03*
X87020000Y-116800000D03*
X112857200Y-133757200D03*
X91010000Y-147890000D03*
X123810000Y-138090000D03*
X87380000Y-153940000D03*
X126620000Y-102100000D03*
X119700000Y-150270000D03*
X91520000Y-137320000D03*
X144570000Y-109230000D03*
X159490000Y-111110000D03*
X134950200Y-142481000D03*
X145590000Y-126000000D03*
X97060000Y-153870000D03*
X159490000Y-107100000D03*
X100701000Y-109859200D03*
X120565800Y-118663200D03*
X105591911Y-134047657D03*
X149020000Y-101950000D03*
X86370000Y-105380000D03*
X107620000Y-109820000D03*
X154510000Y-108340000D03*
X120083400Y-137955600D03*
X96668200Y-108264088D03*
X130290000Y-106050000D03*
X133240000Y-141310000D03*
X123900000Y-134220000D03*
X100603200Y-117289600D03*
X156020000Y-113900000D03*
X114650000Y-105420000D03*
X93568200Y-108264110D03*
X99110000Y-128210000D03*
X86880000Y-108390000D03*
X94150000Y-101860000D03*
X98540000Y-105470000D03*
X95900000Y-118990000D03*
X103010000Y-146700000D03*
X82630000Y-142280000D03*
X108929628Y-143283168D03*
X102940000Y-143240000D03*
X98050000Y-132140000D03*
X113020000Y-142760000D03*
X131210000Y-126160000D03*
X104385000Y-138100700D03*
X115290600Y-146410100D03*
X84150000Y-148060000D03*
X98550000Y-101920000D03*
X117200000Y-150230000D03*
X95130000Y-126280000D03*
X83010000Y-122620000D03*
X137728333Y-106050000D03*
X145432400Y-145665800D03*
X141680000Y-130750000D03*
X123920000Y-131980000D03*
X119260000Y-106310000D03*
X115290600Y-147859100D03*
X117490000Y-104310000D03*
X133180000Y-148410000D03*
X114650000Y-102040000D03*
X128450000Y-125050000D03*
X116530000Y-108290000D03*
X162209994Y-127807994D03*
X145040000Y-106050000D03*
X96950000Y-144040000D03*
X89080000Y-135180000D03*
X93220000Y-132140000D03*
X125800000Y-144388000D03*
X123360000Y-118630000D03*
X99160000Y-125150000D03*
X123990000Y-127130000D03*
X96980000Y-147870000D03*
X156240000Y-105180000D03*
X128600000Y-106020000D03*
X87060000Y-123860000D03*
X89260000Y-125450000D03*
X86830000Y-113460000D03*
X88490000Y-117500000D03*
X128690000Y-134340000D03*
X118940000Y-123510000D03*
X135948333Y-106050000D03*
X103403200Y-130951600D03*
X124330000Y-141310000D03*
X89100000Y-137450000D03*
X106110400Y-109998194D03*
X129510000Y-109320000D03*
X150670000Y-136478000D03*
X112810000Y-146720000D03*
X97583190Y-118845100D03*
X120350000Y-135416800D03*
X143320000Y-106050000D03*
X108910000Y-146760000D03*
X152870000Y-108360000D03*
X90148200Y-111926586D03*
X89180000Y-128310000D03*
X143256000Y-147574000D03*
X92043200Y-108239082D03*
X162840000Y-120270000D03*
X123430000Y-123040000D03*
X111190000Y-102040000D03*
X137020000Y-148400000D03*
X133320000Y-102020000D03*
X111240000Y-108300000D03*
X115290600Y-145161000D03*
X111220000Y-105420000D03*
X105984800Y-138226000D03*
X99400000Y-137170000D03*
X122326400Y-143179800D03*
X94170000Y-105420000D03*
X143190000Y-129450000D03*
X149030000Y-134848000D03*
X90680000Y-144040000D03*
X107600000Y-101920000D03*
X90410000Y-105420000D03*
X136380000Y-140930000D03*
X154560000Y-101870000D03*
X115290600Y-143941800D03*
X86740000Y-111000000D03*
X90890000Y-154010000D03*
X100670000Y-112660000D03*
X133650000Y-138300000D03*
X92780000Y-119980000D03*
X94408463Y-115338301D03*
X96430100Y-112002800D03*
X95228200Y-111926612D03*
X92767700Y-116952800D03*
X93882000Y-111977396D03*
X93980000Y-116978200D03*
X113258600Y-119558300D03*
X104587000Y-121310000D03*
X113000000Y-121257300D03*
X110718600Y-124522000D03*
X118998600Y-126799600D03*
X100331100Y-121350000D03*
X88228200Y-112825600D03*
X115839200Y-126788200D03*
X93831897Y-123760803D03*
X88500000Y-115820000D03*
X109677200Y-126695200D03*
X120564600Y-117145000D03*
X109995394Y-130796400D03*
X107061000Y-135234000D03*
X102475000Y-136685700D03*
X105984800Y-136676000D03*
X104160000Y-139880000D03*
X123990000Y-128640000D03*
X136906000Y-145288000D03*
X107660000Y-108290000D03*
X137414000Y-146558000D03*
X143400000Y-145320000D03*
X127380000Y-125030000D03*
X92680000Y-126740000D03*
X136398000Y-144018000D03*
X94380000Y-128170000D03*
X107670400Y-136696600D03*
X110238251Y-132028501D03*
X118269800Y-130762200D03*
X101912850Y-132530287D03*
X131230000Y-124590000D03*
X137414000Y-144018000D03*
X115440000Y-134220000D03*
X100675600Y-108322200D03*
X109460000Y-108290000D03*
X118826000Y-135467600D03*
X130880000Y-144368000D03*
X105940000Y-139830000D03*
X134950200Y-144031000D03*
X117780000Y-137010000D03*
X136398000Y-146558000D03*
X99090000Y-108260000D03*
X117385000Y-135443400D03*
X118312600Y-133889200D03*
X93620000Y-147810000D03*
X91510000Y-135750000D03*
X82770000Y-129172600D03*
X84437800Y-123818344D03*
X82770000Y-134797600D03*
X107673200Y-111901610D03*
X103656337Y-118903246D03*
X153409985Y-127807985D03*
X118528200Y-120407800D03*
X143324200Y-142942400D03*
X90470000Y-122892700D03*
X99091040Y-118870500D03*
X114133200Y-114389598D03*
X104553202Y-113014598D03*
X114023200Y-111901600D03*
X113993106Y-116951600D03*
X111483200Y-111901614D03*
X106113204Y-113034596D03*
X110213200Y-116851600D03*
X112753200Y-111901598D03*
X113193202Y-115284610D03*
X106150000Y-116380000D03*
X106113204Y-114684596D03*
X105973712Y-117983000D03*
X104590000Y-122750000D03*
X108204000Y-124434600D03*
X104573194Y-116404600D03*
X104553194Y-114664600D03*
X103023196Y-116394600D03*
X103023202Y-114654600D03*
X115798600Y-121259600D03*
X110610000Y-122290000D03*
X157725000Y-116037500D03*
X137790000Y-119810000D03*
X142760000Y-119810000D03*
X132960000Y-119770000D03*
X128180000Y-119760000D03*
X155510000Y-138298000D03*
X142421200Y-140891600D03*
X139393400Y-140899200D03*
X106750000Y-132730000D03*
X141043400Y-140899200D03*
X125455966Y-126392619D03*
X112840000Y-137190000D03*
X113580000Y-137920000D03*
X126085320Y-125386746D03*
X106750000Y-133780000D03*
X112800000Y-149570000D03*
X106790000Y-148645000D03*
X112040000Y-148860000D03*
X112210000Y-147830000D03*
X107673212Y-116851600D03*
X140570000Y-122200000D03*
X102700000Y-127830000D03*
X138965000Y-122180000D03*
X103410000Y-128760000D03*
X100770000Y-126960000D03*
X97768200Y-116876600D03*
X109448600Y-124522000D03*
X104592600Y-124388800D03*
X106159800Y-124389000D03*
X117398000Y-121809800D03*
X149049994Y-136513000D03*
X154780000Y-145498000D03*
X108407200Y-115392200D03*
X106948700Y-115454723D03*
X101955600Y-115460000D03*
X101508916Y-134113917D03*
X101498400Y-135128000D03*
X108407200Y-113893600D03*
X96494600Y-116952800D03*
X129380000Y-130030000D03*
X134060000Y-130750000D03*
X102510000Y-138130000D03*
X102510000Y-139871100D03*
X107690000Y-138130000D03*
X107580000Y-139828900D03*
X81815000Y-125350000D03*
X122430000Y-104750000D03*
D19*
X94830000Y-117930000D02*
X92780000Y-119980000D01*
X94408463Y-114024437D02*
X96430100Y-112002800D01*
X94408463Y-115338301D02*
X94408463Y-114024437D01*
X94408463Y-115338301D02*
X94830000Y-115759838D01*
X94830000Y-115759838D02*
X94830000Y-117930000D01*
X92684600Y-116967000D02*
X92753500Y-116967000D01*
X92684600Y-116967000D02*
X92688200Y-111848614D01*
X93560209Y-110976605D02*
X94278193Y-110976605D01*
X92688200Y-111848614D02*
X93560209Y-110976605D01*
X94278193Y-110976605D02*
X95228200Y-111926612D01*
X92753500Y-116967000D02*
X92767700Y-116952800D01*
X93954600Y-116952800D02*
X93558201Y-116576599D01*
X93558201Y-112326595D02*
X93958200Y-111926596D01*
X93558201Y-116576599D02*
X93558201Y-112326595D01*
X112984800Y-126788200D02*
X110718600Y-124522000D01*
X118987200Y-126788200D02*
X118998600Y-126799600D01*
X115839200Y-126788200D02*
X118987200Y-126788200D01*
X90136021Y-123760803D02*
X89470000Y-123094782D01*
X89422600Y-114020000D02*
X88228200Y-112825600D01*
X113258600Y-119558300D02*
X118151300Y-119558300D01*
X89470000Y-115830000D02*
X89470000Y-114020000D01*
X110718600Y-125653800D02*
X109677200Y-126695200D01*
X112896100Y-121361200D02*
X113000000Y-121257300D01*
X104587000Y-121310000D02*
X112896100Y-121361200D01*
X118151300Y-119558300D02*
X120564600Y-117145000D01*
X89460000Y-115820000D02*
X89470000Y-115830000D01*
X93831897Y-123760803D02*
X90136021Y-123760803D01*
X110718600Y-124522000D02*
X110718600Y-125653800D01*
X100207918Y-121350000D02*
X97797115Y-123760803D01*
X97797115Y-123760803D02*
X93831897Y-123760803D01*
X115839200Y-126788200D02*
X112984800Y-126788200D01*
X89470000Y-123094782D02*
X89470000Y-115830000D01*
X89470000Y-114020000D02*
X89422600Y-114020000D01*
X88500000Y-115820000D02*
X89460000Y-115820000D01*
X100331100Y-121350000D02*
X100207918Y-121350000D01*
D20*
X110886350Y-130796400D02*
X114280000Y-134190050D01*
X112630000Y-140750000D02*
X98781139Y-140750000D01*
X114280000Y-134190050D02*
X114280000Y-139100000D01*
X98781139Y-140750000D02*
X96664600Y-138633461D01*
X109995394Y-130796400D02*
X110886350Y-130796400D01*
X96664600Y-138633461D02*
X96664600Y-137572800D01*
X114280000Y-139100000D02*
X112630000Y-140750000D01*
D21*
X115756600Y-135443400D02*
X115175000Y-136025000D01*
X115175000Y-136025000D02*
X115175000Y-139446396D01*
X96515099Y-141625000D02*
X92949600Y-138059501D01*
X112996396Y-141625000D02*
X96515099Y-141625000D01*
X92949600Y-138059501D02*
X92949600Y-133857800D01*
X115175000Y-139446396D02*
X112996396Y-141625000D01*
X92949600Y-133857800D02*
X92957400Y-133850000D01*
X117385000Y-135443400D02*
X115756600Y-135443400D01*
X92957400Y-133850000D02*
X95481800Y-133850000D01*
X95481800Y-133850000D02*
X96664600Y-135032800D01*
X114725000Y-135838604D02*
X115570204Y-134993400D01*
X92499600Y-138245897D02*
X92499600Y-136739600D01*
X93620000Y-147810000D02*
X93620000Y-139366297D01*
X117913895Y-133889200D02*
X118312600Y-133889200D01*
X115570204Y-134993400D02*
X116809695Y-134993400D01*
X98605099Y-141175000D02*
X95489600Y-138059501D01*
X112810000Y-141175000D02*
X98605099Y-141175000D01*
X114725000Y-139260000D02*
X112810000Y-141175000D01*
X94124600Y-135032800D02*
X95489600Y-136397800D01*
X93620000Y-139366297D02*
X92499600Y-138245897D01*
X116809695Y-134993400D02*
X117913895Y-133889200D01*
X114725000Y-139260000D02*
X114725000Y-135838604D01*
X95489600Y-136397800D02*
X95489600Y-138059501D01*
X92499600Y-136739600D02*
X91510000Y-135750000D01*
D19*
X82770000Y-128800000D02*
X84437800Y-127132200D01*
X83512400Y-129915000D02*
X82770000Y-129172600D01*
X84437800Y-127132200D02*
X84437800Y-123818344D01*
X82770000Y-129172600D02*
X82770000Y-128800000D01*
X86895000Y-129915000D02*
X83512400Y-129915000D01*
X82770000Y-134797600D02*
X82770000Y-129172600D01*
X158320000Y-144496000D02*
X158320000Y-142016000D01*
X109257200Y-120407800D02*
X107752646Y-118903246D01*
X109257200Y-120407800D02*
X118528200Y-120407800D01*
X159620000Y-145796000D02*
X158770000Y-146646000D01*
X147614682Y-146646000D02*
X143911082Y-142942400D01*
X153409985Y-127807985D02*
X153409985Y-137400067D01*
X153409985Y-127807985D02*
X153489985Y-127807985D01*
X159620000Y-145796000D02*
X158320000Y-144496000D01*
X107752646Y-118903246D02*
X103656337Y-118903246D01*
X118760400Y-120660000D02*
X146242000Y-120660000D01*
X158770000Y-146646000D02*
X147614682Y-146646000D01*
X118528200Y-120407800D02*
X118780400Y-120660000D01*
X143911082Y-142942400D02*
X143324200Y-142942400D01*
X99091040Y-118870500D02*
X98121540Y-119840000D01*
X94400000Y-119840000D02*
X91347300Y-122892700D01*
X156725918Y-140716000D02*
X159620000Y-140716000D01*
X153489985Y-127807985D02*
X153420000Y-127877970D01*
X158320000Y-142016000D02*
X159620000Y-140716000D01*
X98121540Y-119840000D02*
X94400000Y-119840000D01*
X153409985Y-137400067D02*
X156725918Y-140716000D01*
X109257200Y-120407800D02*
X109257200Y-113485610D01*
X109257200Y-113485610D02*
X107673200Y-111901610D01*
X146262000Y-120660000D02*
X153409985Y-127807985D01*
X91347300Y-122892700D02*
X90470000Y-122892700D01*
D21*
X104553202Y-113014598D02*
X106841190Y-110726610D01*
X112848210Y-110726610D02*
X114023200Y-111901600D01*
X106841190Y-110726610D02*
X112848210Y-110726610D01*
D19*
X114023200Y-111901600D02*
X114023200Y-114279598D01*
X113427421Y-116951600D02*
X111483200Y-115007379D01*
X111483200Y-115007379D02*
X111483200Y-111901614D01*
X113993106Y-116951600D02*
X113427421Y-116951600D01*
D21*
X106113204Y-113034596D02*
X106113204Y-112436301D01*
X110213200Y-113416305D02*
X110213200Y-116851600D01*
X107372895Y-111176610D02*
X107973505Y-111176610D01*
X107973505Y-111176610D02*
X110213200Y-113416305D01*
X106113204Y-112436301D02*
X107372895Y-111176610D01*
D19*
X112753200Y-114844608D02*
X112753200Y-111901598D01*
X113193202Y-115284610D02*
X112753200Y-114844608D01*
D20*
X106113204Y-116269127D02*
X106113204Y-114684596D01*
X106150000Y-116380000D02*
X106113204Y-116269127D01*
D21*
X105973712Y-117983000D02*
X103551278Y-117983000D01*
X103310000Y-122780000D02*
X104560000Y-122780000D01*
X104560000Y-122780000D02*
X104590000Y-122750000D01*
X107524600Y-125114000D02*
X108204000Y-124434600D01*
X105434800Y-124689305D02*
X105859495Y-125114000D01*
X102931337Y-119671337D02*
X102935000Y-119675000D01*
X104590000Y-122750000D02*
X105434800Y-123594800D01*
X102935000Y-119675000D02*
X102935000Y-122405000D01*
X103551278Y-117983000D02*
X102931337Y-118602941D01*
X105859495Y-125114000D02*
X107524600Y-125114000D01*
X102931337Y-118602941D02*
X102931337Y-119671337D01*
X102935000Y-122405000D02*
X103310000Y-122780000D01*
X105434800Y-123594800D02*
X105434800Y-124689305D01*
X104573194Y-114684600D02*
X104553194Y-114664600D01*
X104573194Y-116404600D02*
X104573194Y-114684600D01*
D20*
X103023202Y-114654600D02*
X103023202Y-116394594D01*
X103023202Y-116394594D02*
X103023196Y-116394600D01*
X110610000Y-122290000D02*
X115160000Y-122280000D01*
X115160000Y-122280000D02*
X115798600Y-121259600D01*
D19*
X142760000Y-119810000D02*
X137790000Y-119810000D01*
X137790000Y-119810000D02*
X133000000Y-119810000D01*
X142760000Y-119810000D02*
X146614082Y-119810000D01*
X158320000Y-134336000D02*
X155510000Y-137146000D01*
X163460001Y-139415999D02*
X163460001Y-135011999D01*
X157725000Y-116474999D02*
X163460001Y-122210000D01*
X155510000Y-137146000D02*
X155510000Y-138298000D01*
X128190000Y-119770000D02*
X128180000Y-119760000D01*
X146614082Y-119810000D02*
X161140081Y-134335999D01*
X133000000Y-119810000D02*
X132960000Y-119770000D01*
X162160000Y-140716000D02*
X163460001Y-139415999D01*
X163460001Y-122210000D02*
X163460001Y-135011999D01*
X161140081Y-134335999D02*
X162784001Y-134335999D01*
X163460001Y-135011999D02*
X162784001Y-134335999D01*
X157725000Y-116037500D02*
X157725000Y-116474999D01*
X161140081Y-134335999D02*
X158320000Y-134336000D01*
X132960000Y-119770000D02*
X128190000Y-119770000D01*
X140243400Y-141749200D02*
X141563600Y-141749200D01*
X156600000Y-151200000D02*
X154752000Y-149352000D01*
X139393400Y-140899200D02*
X139343400Y-148136600D01*
X139343400Y-148136600D02*
X136280000Y-151200000D01*
X141563600Y-141749200D02*
X142421200Y-140891600D01*
X154752000Y-149352000D02*
X138128000Y-149352000D01*
X139393400Y-137263400D02*
X139345000Y-137215000D01*
X138128000Y-149352000D02*
X136280000Y-151200000D01*
X139393400Y-140899200D02*
X140243400Y-141749200D01*
X139393400Y-140899200D02*
X139393400Y-137263400D01*
D20*
X125755966Y-131521652D02*
X126384315Y-132150000D01*
X141345000Y-137215000D02*
X141345000Y-132745000D01*
D21*
X112815000Y-137165000D02*
X112840000Y-137190000D01*
D20*
X141043400Y-137516600D02*
X141345000Y-137215000D01*
X141345000Y-132745000D02*
X140750000Y-132150000D01*
D21*
X106750000Y-132730000D02*
X111185000Y-137165000D01*
X111185000Y-137165000D02*
X112815000Y-137165000D01*
D20*
X125755966Y-126692619D02*
X125755966Y-131521652D01*
X140750000Y-132150000D02*
X126384315Y-132150000D01*
X141043400Y-140899200D02*
X141043400Y-137516600D01*
X125455966Y-126392619D02*
X125755966Y-126692619D01*
D21*
X106750000Y-133780000D02*
X107138910Y-133780000D01*
X107138910Y-133780000D02*
X110973910Y-137615000D01*
D20*
X141745000Y-135615000D02*
X141745000Y-132579314D01*
D21*
X112239695Y-137615000D02*
X112544695Y-137920000D01*
D20*
X143345000Y-137215000D02*
X141745000Y-135615000D01*
X126155966Y-131355966D02*
X126155966Y-125457392D01*
X141745000Y-132579314D02*
X140915685Y-131750000D01*
X126550000Y-131750000D02*
X126155966Y-131355966D01*
X140915685Y-131750000D02*
X126550000Y-131750000D01*
D21*
X112544695Y-137920000D02*
X113580000Y-137920000D01*
X110973910Y-137615000D02*
X112239695Y-137615000D01*
D20*
X126155966Y-125457392D02*
X126085320Y-125386746D01*
X114810000Y-152110000D02*
X114810000Y-150910000D01*
X114810000Y-150910000D02*
X113470000Y-149570000D01*
X142510000Y-152350000D02*
X115050000Y-152350000D01*
X113470000Y-149570000D02*
X112800000Y-149570000D01*
X115050000Y-152350000D02*
X114810000Y-152110000D01*
X143900000Y-153740000D02*
X142510000Y-152350000D01*
D21*
X106790000Y-153851701D02*
X106790000Y-148645000D01*
X137645000Y-154915000D02*
X107853299Y-154915000D01*
X138820000Y-153740000D02*
X137645000Y-154915000D01*
X107853299Y-154915000D02*
X106790000Y-153851701D01*
D20*
X112030000Y-148870000D02*
X112040000Y-148860000D01*
X112030000Y-152590000D02*
X110880000Y-153740000D01*
X112030000Y-152590000D02*
X112030000Y-148870000D01*
X112080050Y-147830000D02*
X112210000Y-147830000D01*
X108340000Y-153740000D02*
X109490000Y-152590000D01*
X109490000Y-152590000D02*
X109490000Y-150420050D01*
X109490000Y-150420050D02*
X112080050Y-147830000D01*
D21*
X107391396Y-117133416D02*
X103764466Y-117133416D01*
X139825000Y-121455000D02*
X140570000Y-122200000D01*
X107673212Y-116851600D02*
X107391396Y-117133416D01*
X103764466Y-117133416D02*
X102481337Y-118416545D01*
X102700000Y-127830000D02*
X121180000Y-127830000D01*
X102485000Y-127615000D02*
X102485000Y-120450000D01*
X127555000Y-121455000D02*
X139825000Y-121455000D01*
X121180000Y-127830000D02*
X127555000Y-121455000D01*
X102700000Y-127830000D02*
X102485000Y-127615000D01*
X102481337Y-118416545D02*
X102481337Y-120446337D01*
X102481337Y-120446337D02*
X102485000Y-120450000D01*
D20*
X100770000Y-126960000D02*
X101080600Y-126649400D01*
D21*
X103890000Y-128280000D02*
X103410000Y-128760000D01*
X121366396Y-128280000D02*
X103890000Y-128280000D01*
X99142200Y-116876600D02*
X97768200Y-116876600D01*
X127466396Y-122180000D02*
X121366396Y-128280000D01*
X101056100Y-118790500D02*
X99142200Y-116876600D01*
X138965000Y-122180000D02*
X127466396Y-122180000D01*
D20*
X101080600Y-126649400D02*
X101080600Y-118810000D01*
D21*
X105367800Y-125564000D02*
X108406600Y-125564000D01*
X104592600Y-124788800D02*
X105367800Y-125564000D01*
X104592600Y-124388800D02*
X104592600Y-124788800D01*
X108406600Y-125564000D02*
X109448600Y-124522000D01*
X115498200Y-123709600D02*
X117398000Y-121809800D01*
X107151000Y-123709600D02*
X115498200Y-123709600D01*
X106159800Y-124389000D02*
X107151000Y-123709600D01*
D19*
X154780000Y-145498000D02*
X154780000Y-142243006D01*
X154780000Y-142243006D02*
X149049994Y-136513000D01*
D21*
X108407200Y-115392200D02*
X107011223Y-115392200D01*
X101178200Y-133783201D02*
X101508916Y-134113917D01*
X107011223Y-115392200D02*
X106948700Y-115454723D01*
X101955600Y-115460000D02*
X101955600Y-129880000D01*
X101178200Y-130741295D02*
X101178200Y-133783201D01*
X101955600Y-129880000D02*
X101178200Y-130741295D01*
X97295800Y-116151600D02*
X100490505Y-116151600D01*
X101505600Y-117166695D02*
X101505600Y-129692400D01*
X101498400Y-135128000D02*
X100728200Y-134357800D01*
X100490505Y-116151600D02*
X101505600Y-117166695D01*
X101505600Y-117166695D02*
X101002000Y-116663095D01*
X96494600Y-116952800D02*
X97295800Y-116151600D01*
X101002000Y-114482295D02*
X101590695Y-113893600D01*
X100728200Y-130469800D02*
X101505600Y-129692400D01*
X101002000Y-116663095D02*
X101002000Y-114482295D01*
X101590695Y-113893600D02*
X108407200Y-113893600D01*
X100728200Y-134357800D02*
X100728200Y-130469800D01*
D20*
X134060000Y-130750000D02*
X133320000Y-130010000D01*
X133320000Y-130010000D02*
X129130000Y-130010000D01*
X129130000Y-130010000D02*
X129110000Y-130030000D01*
D19*
X83032000Y-106798000D02*
X117102000Y-106798000D01*
X119150000Y-104750000D02*
X122430000Y-104750000D01*
X117102000Y-106798000D02*
X119150000Y-104750000D01*
X81815000Y-125350000D02*
X81815000Y-108015000D01*
X81815000Y-108015000D02*
X83032000Y-106798000D01*
M02*
