G04 #@! TF.GenerationSoftware,KiCad,Pcbnew,7.0.10*
G04 #@! TF.CreationDate,2024-01-23T19:41:07-06:00*
G04 #@! TF.ProjectId,radiohead,72616469-6f68-4656-9164-2e6b69636164,2.0*
G04 #@! TF.SameCoordinates,Original*
G04 #@! TF.FileFunction,Legend,Bot*
G04 #@! TF.FilePolarity,Positive*
%FSLAX46Y46*%
G04 Gerber Fmt 4.6, Leading zero omitted, Abs format (unit mm)*
G04 Created by KiCad (PCBNEW 7.0.10) date 2024-01-23 19:41:07*
%MOMM*%
%LPD*%
G01*
G04 APERTURE LIST*
%ADD10C,0.150000*%
%ADD11C,0.120000*%
G04 APERTURE END LIST*
D10*
X158824819Y-152136666D02*
X159539104Y-152136666D01*
X159539104Y-152136666D02*
X159681961Y-152089047D01*
X159681961Y-152089047D02*
X159777200Y-151993809D01*
X159777200Y-151993809D02*
X159824819Y-151850952D01*
X159824819Y-151850952D02*
X159824819Y-151755714D01*
X159253390Y-152755714D02*
X159205771Y-152660476D01*
X159205771Y-152660476D02*
X159158152Y-152612857D01*
X159158152Y-152612857D02*
X159062914Y-152565238D01*
X159062914Y-152565238D02*
X159015295Y-152565238D01*
X159015295Y-152565238D02*
X158920057Y-152612857D01*
X158920057Y-152612857D02*
X158872438Y-152660476D01*
X158872438Y-152660476D02*
X158824819Y-152755714D01*
X158824819Y-152755714D02*
X158824819Y-152946190D01*
X158824819Y-152946190D02*
X158872438Y-153041428D01*
X158872438Y-153041428D02*
X158920057Y-153089047D01*
X158920057Y-153089047D02*
X159015295Y-153136666D01*
X159015295Y-153136666D02*
X159062914Y-153136666D01*
X159062914Y-153136666D02*
X159158152Y-153089047D01*
X159158152Y-153089047D02*
X159205771Y-153041428D01*
X159205771Y-153041428D02*
X159253390Y-152946190D01*
X159253390Y-152946190D02*
X159253390Y-152755714D01*
X159253390Y-152755714D02*
X159301009Y-152660476D01*
X159301009Y-152660476D02*
X159348628Y-152612857D01*
X159348628Y-152612857D02*
X159443866Y-152565238D01*
X159443866Y-152565238D02*
X159634342Y-152565238D01*
X159634342Y-152565238D02*
X159729580Y-152612857D01*
X159729580Y-152612857D02*
X159777200Y-152660476D01*
X159777200Y-152660476D02*
X159824819Y-152755714D01*
X159824819Y-152755714D02*
X159824819Y-152946190D01*
X159824819Y-152946190D02*
X159777200Y-153041428D01*
X159777200Y-153041428D02*
X159729580Y-153089047D01*
X159729580Y-153089047D02*
X159634342Y-153136666D01*
X159634342Y-153136666D02*
X159443866Y-153136666D01*
X159443866Y-153136666D02*
X159348628Y-153089047D01*
X159348628Y-153089047D02*
X159301009Y-153041428D01*
X159301009Y-153041428D02*
X159253390Y-152946190D01*
D11*
X107010000Y-155070000D02*
X107010000Y-149870000D01*
X157930000Y-155070000D02*
X107010000Y-155070000D01*
X157930000Y-155070000D02*
X157930000Y-152470000D01*
X155330000Y-152470000D02*
X155330000Y-149870000D01*
X157930000Y-152470000D02*
X155330000Y-152470000D01*
X157930000Y-151200000D02*
X157930000Y-149870000D01*
X155330000Y-149870000D02*
X107010000Y-149870000D01*
X157930000Y-149870000D02*
X156600000Y-149870000D01*
M02*
