%TF.GenerationSoftware,KiCad,Pcbnew,7.0.10*%
%TF.CreationDate,2024-04-14T10:08:43-05:00*%
%TF.ProjectId,txfilters,74786669-6c74-4657-9273-2e6b69636164,rev?*%
%TF.SameCoordinates,Original*%
%TF.FileFunction,Paste,Bot*%
%TF.FilePolarity,Positive*%
%FSLAX46Y46*%
G04 Gerber Fmt 4.6, Leading zero omitted, Abs format (unit mm)*
G04 Created by KiCad (PCBNEW 7.0.10) date 2024-04-14 10:08:43*
%MOMM*%
%LPD*%
G01*
G04 APERTURE LIST*
G04 Aperture macros list*
%AMRoundRect*
0 Rectangle with rounded corners*
0 $1 Rounding radius*
0 $2 $3 $4 $5 $6 $7 $8 $9 X,Y pos of 4 corners*
0 Add a 4 corners polygon primitive as box body*
4,1,4,$2,$3,$4,$5,$6,$7,$8,$9,$2,$3,0*
0 Add four circle primitives for the rounded corners*
1,1,$1+$1,$2,$3*
1,1,$1+$1,$4,$5*
1,1,$1+$1,$6,$7*
1,1,$1+$1,$8,$9*
0 Add four rect primitives between the rounded corners*
20,1,$1+$1,$2,$3,$4,$5,0*
20,1,$1+$1,$4,$5,$6,$7,0*
20,1,$1+$1,$6,$7,$8,$9,0*
20,1,$1+$1,$8,$9,$2,$3,0*%
G04 Aperture macros list end*
%ADD10R,5.080000X1.500000*%
%ADD11RoundRect,0.250000X-0.325000X-0.650000X0.325000X-0.650000X0.325000X0.650000X-0.325000X0.650000X0*%
%ADD12RoundRect,0.225000X-0.225000X-0.250000X0.225000X-0.250000X0.225000X0.250000X-0.225000X0.250000X0*%
%ADD13RoundRect,0.250000X0.325000X0.650000X-0.325000X0.650000X-0.325000X-0.650000X0.325000X-0.650000X0*%
%ADD14RoundRect,0.200000X-0.200000X-0.275000X0.200000X-0.275000X0.200000X0.275000X-0.200000X0.275000X0*%
%ADD15RoundRect,0.112500X0.112500X-0.187500X0.112500X0.187500X-0.112500X0.187500X-0.112500X-0.187500X0*%
%ADD16RoundRect,0.112500X-0.112500X0.187500X-0.112500X-0.187500X0.112500X-0.187500X0.112500X0.187500X0*%
%ADD17RoundRect,0.200000X-0.275000X0.200000X-0.275000X-0.200000X0.275000X-0.200000X0.275000X0.200000X0*%
G04 APERTURE END LIST*
D10*
%TO.C,J3*%
X182910000Y-123955000D03*
X182910000Y-132455000D03*
%TD*%
%TO.C,J2*%
X182960000Y-108145000D03*
X182960000Y-116645000D03*
%TD*%
D11*
%TO.C,C31*%
X141570000Y-119145000D03*
X144520000Y-119145000D03*
%TD*%
%TO.C,C19*%
X111590000Y-138805000D03*
X114540000Y-138805000D03*
%TD*%
D12*
%TO.C,C8*%
X160654000Y-120103000D03*
X162204000Y-120103000D03*
%TD*%
D13*
%TO.C,C33*%
X106080000Y-116885000D03*
X103130000Y-116885000D03*
%TD*%
D11*
%TO.C,C18*%
X126600000Y-138830000D03*
X129550000Y-138830000D03*
%TD*%
%TO.C,C1*%
X141670000Y-113055000D03*
X144620000Y-113055000D03*
%TD*%
%TO.C,C42*%
X141446000Y-136401000D03*
X144396000Y-136401000D03*
%TD*%
%TO.C,C45*%
X126460000Y-144893000D03*
X129410000Y-144893000D03*
%TD*%
%TO.C,C13*%
X141420000Y-130375000D03*
X144370000Y-130375000D03*
%TD*%
%TO.C,C36*%
X126584000Y-128081000D03*
X129534000Y-128081000D03*
%TD*%
D13*
%TO.C,C44*%
X105950000Y-147159000D03*
X103000000Y-147159000D03*
%TD*%
D11*
%TO.C,C17*%
X141480000Y-138815000D03*
X144430000Y-138815000D03*
%TD*%
%TO.C,C35*%
X141316000Y-127875000D03*
X144266000Y-127875000D03*
%TD*%
%TO.C,C23*%
X111610000Y-147145000D03*
X114560000Y-147145000D03*
%TD*%
%TO.C,C4*%
X126520000Y-113235000D03*
X129470000Y-113235000D03*
%TD*%
%TO.C,C7*%
X111670000Y-108395000D03*
X114620000Y-108395000D03*
%TD*%
%TO.C,C41*%
X126522000Y-136463000D03*
X129472000Y-136463000D03*
%TD*%
D13*
%TO.C,C34*%
X106166000Y-121319000D03*
X103216000Y-121319000D03*
%TD*%
D14*
%TO.C,R6*%
X169380000Y-114615000D03*
X171030000Y-114615000D03*
%TD*%
D15*
%TO.C,D1*%
X167340000Y-125271000D03*
X167340000Y-123171000D03*
%TD*%
D16*
%TO.C,D2*%
X167619000Y-110675000D03*
X167619000Y-112775000D03*
%TD*%
D11*
%TO.C,C5*%
X111700000Y-113105000D03*
X114650000Y-113105000D03*
%TD*%
%TO.C,C10*%
X126660000Y-121820000D03*
X129610000Y-121820000D03*
%TD*%
%TO.C,C24*%
X111740000Y-142605000D03*
X114690000Y-142605000D03*
%TD*%
%TO.C,C32*%
X126584000Y-119383000D03*
X129534000Y-119383000D03*
%TD*%
%TO.C,C46*%
X141600000Y-144859000D03*
X144550000Y-144859000D03*
%TD*%
D13*
%TO.C,C29*%
X105974000Y-113191000D03*
X103024000Y-113191000D03*
%TD*%
D11*
%TO.C,C21*%
X141550000Y-147285000D03*
X144500000Y-147285000D03*
%TD*%
%TO.C,C12*%
X111670000Y-116985000D03*
X114620000Y-116985000D03*
%TD*%
%TO.C,C15*%
X111670000Y-130385000D03*
X114620000Y-130385000D03*
%TD*%
%TO.C,C16*%
X111590000Y-125735000D03*
X114540000Y-125735000D03*
%TD*%
%TO.C,C25*%
X141632000Y-110747000D03*
X144582000Y-110747000D03*
%TD*%
%TO.C,C11*%
X111680000Y-121655000D03*
X114630000Y-121655000D03*
%TD*%
%TO.C,C9*%
X141540000Y-121765000D03*
X144490000Y-121765000D03*
%TD*%
D13*
%TO.C,C30*%
X106272000Y-108345000D03*
X103322000Y-108345000D03*
%TD*%
%TO.C,C39*%
X105888000Y-133951000D03*
X102938000Y-133951000D03*
%TD*%
D11*
%TO.C,C28*%
X126392000Y-110699000D03*
X129342000Y-110699000D03*
%TD*%
D13*
%TO.C,C37*%
X106104000Y-130305000D03*
X103154000Y-130305000D03*
%TD*%
%TO.C,C40*%
X106142000Y-138825000D03*
X103192000Y-138825000D03*
%TD*%
%TO.C,C43*%
X105950000Y-142539000D03*
X103000000Y-142539000D03*
%TD*%
D11*
%TO.C,C20*%
X111630000Y-134205000D03*
X114580000Y-134205000D03*
%TD*%
%TO.C,C14*%
X126660000Y-130465000D03*
X129610000Y-130465000D03*
%TD*%
D17*
%TO.C,R5*%
X170143000Y-120656000D03*
X170143000Y-122306000D03*
%TD*%
D13*
%TO.C,C38*%
X106142000Y-125521000D03*
X103192000Y-125521000D03*
%TD*%
D11*
%TO.C,C22*%
X126500000Y-147425000D03*
X129450000Y-147425000D03*
%TD*%
M02*
